<?xml version="1.0" encoding="utf-8"?>
<!-- Generator: Adobe Illustrator 16.0.0, SVG Export Plug-In . SVG Version: 6.00 Build 0)  -->
<!DOCTYPE svg PUBLIC "-//W3C//DTD SVG 1.1//EN" "http://www.w3.org/Graphics/SVG/1.1/DTD/svg11.dtd">
<svg version="1.1" id="Layer_1" xmlns="http://www.w3.org/2000/svg" xmlns:xlink="http://www.w3.org/1999/xlink" x="0px" y="0px"
	 width="14px" height="14px" viewBox="0 0 14 14" enable-background="new 0 0 14 14" xml:space="preserve">
<g>
	<path fill="#CEDD40" d="M6.957,11.993c-2.757,0-5-2.244-5-5.001s2.243-5,5-5s5,2.243,5,5S9.714,11.993,6.957,11.993z"/>
	<path fill="#231F20" d="M6.957,2.992c2.209,0,4,1.791,4,4c0,2.21-1.791,4.001-4,4.001s-4-1.791-4-4.001
		C2.957,4.783,4.748,2.992,6.957,2.992 M6.957,0.992c-3.309,0-6,2.691-6,6c0,3.31,2.691,6.001,6,6.001s6-2.691,6-6.001
		C12.957,3.684,10.266,0.992,6.957,0.992L6.957,0.992z"/>
</g>
</svg>
